<svg xmlns="http://www.w3.org/2000/svg" viewBox="260 260 504 504" width="108" height="108">
    <g transform="translate(230, 230) scale(0.62, 0.62)">
        <path fill="rgba(0,0,0,0.2)" fill-rule="evenodd" d="M 657,701 657,702 658,703 658,704 659,705 659,707 660,708 660,710 661,711 661,713 662,714 662,715 663,716 663,718 664,719 664,720 665,721 665,723 666,724 666,726 667,727 667,728 668,729 668,731 669,732 669,733 670,734 670,736 671,737 671,739 672,740 672,741 673,742 673,744 674,745 674,746 675,747 675,749 676,750 676,752 677,753 677,754 678,755 678,757 679,758 679,759 680,760 680,762 681,763 681,765 682,766 682,767 683,768 683,770 684,771 684,772 685,773 685,775 686,776 686,778 687,779 687,780 688,781 688,783 689,784 689,786 690,787 690,788 691,789 691,791 692,792 692,793 693,794 693,795 694,796 694,797 695,798 695,799 696,800 696,801 699,804 699,805 702,808 703,808 706,811 707,811 709,813 710,813 711,814 712,814 713,815 714,815 715,816 717,816 718,817 722,817 723,818 810,818 811,817 814,817 815,816 817,816 818,815 819,815 822,812 823,812 823,811 825,809 825,808 826,807 826,805 827,804 827,796 826,795 826,792 825,791 825,790 824,789 824,787 823,786 823,784 822,783 822,782 821,781 821,779 820,778 820,776 819,775 819,774 818,773 818,771 817,770 817,768 816,767 816,766 815,765 815,763 814,762 814,761 813,760 813,758 812,757 812,756 811,755 811,753 810,752 810,751 809,750 809,748 808,747 808,745 807,744 807,743 806,742 806,740 805,739 805,738 804,737 804,735 803,734 803,732 802,731 802,730 801,729 801,727 800,726 800,724 799,723 799,722 798,721 798,719 797,718 797,716 796,715 796,714 795,713 795,711 794,710 794,709 678,709 677,708 673,708 672,707 670,707 669,706 667,706 666,705 664,705 663,704 662,704 661,703 660,703 658,701 Z" />
        <path fill="rgba(0,0,0,0.2)" fill-rule="evenodd" d="M 482,152 481,153 473,153 472,154 469,154 468,155 465,155 464,156 462,156 461,157 460,157 459,158 458,158 457,159 456,159 455,160 454,160 452,162 451,162 449,164 448,164 441,171 441,172 438,175 438,176 437,177 437,178 436,179 436,180 435,181 435,182 434,183 434,185 433,186 433,187 432,188 432,190 431,191 431,192 430,193 430,195 429,196 429,197 428,198 428,200 427,201 427,202 426,203 426,205 425,206 425,208 424,209 424,210 423,211 423,213 422,214 422,215 421,216 421,218 420,219 420,220 419,221 419,223 418,224 418,225 417,226 417,228 416,229 416,231 415,232 415,233 414,234 414,236 413,237 413,238 412,239 412,241 411,242 411,243 410,244 410,246 409,247 409,249 408,250 408,251 407,252 407,254 406,255 406,256 405,257 405,259 404,260 404,261 403,262 403,264 402,265 402,266 401,267 401,269 400,270 400,271 399,272 399,274 398,275 398,276 397,277 397,279 396,280 396,282 395,283 395,284 394,285 394,287 393,288 393,289 392,290 392,292 391,293 391,295 390,296 390,297 389,298 389,300 388,301 388,302 387,303 387,305 386,306 386,307 385,308 385,310 384,311 384,312 383,313 383,315 382,316 382,317 381,318 381,320 380,321 380,323 379,324 379,325 378,326 378,328 377,329 377,330 376,331 376,333 375,334 375,335 374,336 374,338 373,339 373,341 372,342 372,343 371,344 371,346 370,347 370,349 369,350 369,351 368,352 368,353 367,354 367,356 366,357 366,359 365,360 365,361 364,362 364,363 363,364 363,366 362,367 362,368 361,369 361,371 360,372 360,373 359,374 359,376 358,377 358,378 357,379 357,381 356,382 356,383 355,384 355,386 354,387 354,389 353,390 353,391 352,392 352,394 351,395 351,396 350,397 350,399 349,400 349,401 348,402 348,404 347,405 347,406 346,407 346,409 345,410 345,412 344,413 344,414 343,415 343,417 342,418 342,419 341,420 341,422 340,423 340,424 339,425 339,427 338,428 338,429 337,430 337,432 336,433 336,434 335,435 335,437 334,438 334,439 333,440 333,442 332,443 332,445 331,446 331,447 330,448 330,449 329,450 329,452 328,453 328,455 327,456 327,457 326,458 326,460 325,461 325,462 324,463 324,465 323,466 323,467 322,468 322,470 321,471 321,472 320,473 320,475 319,476 319,478 318,479 318,480 317,481 317,483 316,484 316,485 315,486 315,488 314,489 314,490 313,491 313,493 312,494 312,495 311,496 311,498 310,499 310,500 309,501 309,503 308,504 308,505 307,506 307,508 306,509 306,511 305,512 305,513 304,514 304,516 303,517 303,518 302,519 302,521 301,522 301,523 300,524 300,526 299,527 299,528 298,529 298,531 297,532 297,533 296,534 296,536 295,537 295,538 294,539 294,541 293,542 293,543 292,544 292,546 291,547 291,548 290,549 290,551 289,552 289,554 288,555 288,556 287,557 287,559 286,560 286,561 285,562 285,564 284,565 284,566 283,567 283,569 282,570 282,572 281,573 281,574 280,575 280,577 279,578 279,579 278,580 278,582 277,583 277,584 276,585 276,587 275,588 275,589 274,590 274,592 273,593 273,594 272,595 272,597 271,598 271,599 270,600 270,602 269,603 269,605 268,606 268,607 267,608 267,610 266,611 266,613 265,614 265,615 264,616 264,618 263,619 263,620 262,621 262,623 261,624 261,625 260,626 260,628 259,629 259,630 258,631 258,633 257,634 257,635 256,636 256,638 255,639 255,640 254,641 254,643 253,644 253,646 252,647 252,648 251,649 251,651 250,652 250,653 249,654 249,656 248,657 248,659 247,660 247,661 246,662 246,663 245,664 245,666 244,667 244,669 243,670 243,671 242,672 242,674 241,675 241,676 240,677 240,679 239,680 239,681 238,682 238,684 237,685 237,687 236,688 236,689 235,690 235,692 234,693 234,694 233,695 233,697 232,698 232,699 231,700 231,702 230,703 230,704 229,705 229,707 228,708 228,710 227,711 227,712 226,713 226,715 225,716 225,717 224,718 224,720 223,721 223,722 222,723 222,725 221,726 221,727 220,728 220,730 219,731 219,732 218,733 218,735 217,736 217,738 216,739 216,740 215,741 215,743 214,744 214,745 213,746 213,748 212,749 212,750 211,751 211,753 210,754 210,756 209,757 209,758 208,759 208,761 207,762 207,763 206,764 206,766 205,767 205,768 204,769 204,771 203,772 203,774 202,775 202,776 201,777 201,779 200,780 200,781 199,782 199,784 198,785 198,786 197,787 197,789 196,790 196,792 195,793 195,794 194,795 194,798 193,799 193,804 194,805 194,807 195,808 195,809 196,810 196,811 199,814 200,814 202,816 204,816 205,817 207,817 208,818 295,818 296,817 300,817 301,816 303,816 304,815 305,815 306,814 307,814 308,813 309,813 312,810 313,810 318,805 318,804 320,802 320,801 322,799 322,798 323,797 323,795 324,794 324,793 325,792 325,790 326,789 326,788 327,787 327,785 328,784 328,783 329,782 329,780 330,779 330,777 331,776 331,775 332,774 332,772 333,771 333,770 334,769 334,767 335,766 335,764 336,763 336,762 337,761 337,759 338,758 338,757 339,756 339,754 340,753 340,751 341,750 341,749 342,748 342,746 343,745 343,744 344,743 344,741 345,740 345,738 346,737 346,736 347,735 347,733 348,732 348,730 349,729 349,728 350,727 350,725 351,724 351,723 352,722 352,720 353,719 353,718 354,717 354,715 355,714 355,712 356,711 356,710 357,709 357,707 358,706 358,705 359,704 359,702 360,701 360,699 361,698 361,697 362,696 362,694 363,693 363,692 364,691 364,689 365,688 365,686 366,685 366,684 367,683 367,681 368,680 368,679 369,678 369,676 370,675 370,673 371,672 371,671 372,670 372,668 373,667 373,666 374,665 374,663 375,662 375,660 376,659 376,658 377,657 377,655 378,654 378,653 379,652 379,650 380,649 380,648 381,647 381,645 382,644 382,642 383,641 383,640 384,639 384,638 385,637 385,636 387,634 387,633 394,626 395,626 397,624 398,624 399,623 400,623 401,622 403,622 404,621 407,621 408,620 457,620 458,619 461,619 462,618 463,618 464,617 465,617 466,616 467,616 470,613 471,613 471,612 474,609 474,608 475,607 475,606 476,605 476,604 477,603 477,602 478,601 478,599 479,598 479,597 480,596 480,594 481,593 481,592 482,591 482,589 483,588 483,587 484,586 484,584 485,583 485,582 486,581 486,580 487,579 487,578 489,576 489,575 492,572 493,572 495,570 496,570 497,569 499,569 500,568 508,568 509,569 511,569 512,570 513,570 514,571 515,571 521,577 521,578 523,580 523,582 524,583 524,584 525,585 525,587 526,588 526,589 527,590 527,592 528,593 528,595 529,596 529,597 530,598 530,600 531,601 531,603 532,604 532,605 533,606 533,608 534,609 534,610 535,611 535,613 536,614 536,615 537,616 537,618 538,619 538,621 539,622 539,623 540,624 540,626 541,627 541,628 542,629 542,631 543,632 543,634 544,635 544,636 545,637 545,639 546,640 546,641 547,642 547,644 548,645 548,647 549,648 549,650 550,651 550,652 551,653 551,655 552,656 552,657 553,658 553,660 554,661 554,662 555,663 555,665 556,666 556,668 557,669 557,670 558,671 558,673 559,674 559,675 560,676 560,678 561,679 561,681 562,682 562,683 563,684 563,686 564,687 564,688 565,689 565,691 566,692 566,693 567,694 567,696 568,697 568,699 569,700 569,701 570,702 570,704 571,705 571,706 572,707 572,708 573,709 573,711 574,712 574,714 575,715 575,716 576,717 576,718 581,723 582,723 583,724 591,724 592,723 593,723 594,722 595,722 597,720 597,719 599,717 599,715 600,714 600,713 601,712 601,711 602,710 602,709 603,708 603,706 604,705 604,704 605,703 605,702 606,701 606,699 607,698 607,697 608,696 608,695 609,694 609,692 610,691 610,690 611,689 611,688 612,687 612,685 613,684 613,683 614,682 614,681 615,680 615,679 616,678 616,676 617,675 617,674 618,673 618,672 619,671 619,669 620,668 620,667 621,666 621,665 622,664 622,663 623,662 623,660 624,659 624,658 625,657 625,656 626,655 626,653 627,652 627,651 628,650 628,649 629,648 629,647 631,645 631,644 636,639 637,639 639,637 641,637 642,636 652,636 653,637 654,637 655,638 656,638 662,644 662,645 664,647 664,648 665,649 665,650 666,651 666,653 667,654 667,655 668,656 668,657 669,658 669,660 670,661 670,662 671,663 671,665 672,666 672,667 673,668 673,669 674,670 674,671 676,673 676,674 677,675 678,675 680,677 681,677 682,678 685,678 686,679 782,679 782,677 781,676 781,675 780,674 780,672 779,671 779,669 778,668 778,667 777,666 777,664 776,663 776,661 775,660 775,658 774,657 774,656 773,655 773,653 772,652 772,651 771,650 771,648 770,647 770,645 769,644 769,643 768,642 768,640 767,639 767,637 766,636 766,635 765,634 765,632 764,631 764,630 763,629 763,627 762,626 762,625 761,624 761,622 760,621 760,619 759,618 759,617 758,616 758,614 757,613 757,612 756,611 756,609 755,608 755,606 754,605 754,604 753,603 753,601 752,600 752,599 751,598 751,596 750,595 750,593 749,592 749,591 748,590 748,588 747,587 747,586 746,585 746,583 745,582 745,580 744,579 744,578 743,577 743,575 742,574 742,573 741,572 741,570 740,569 740,567 739,566 739,565 738,564 738,562 737,561 737,560 736,559 736,557 735,556 735,555 734,554 734,552 733,551 733,549 732,548 732,547 731,546 731,544 730,543 730,541 729,540 729,539 728,538 728,536 727,535 727,534 726,533 726,531 725,530 725,528 724,527 724,526 723,525 723,523 722,522 722,520 721,519 721,518 720,517 720,515 719,514 719,513 718,512 718,510 717,509 717,507 716,506 716,505 715,504 715,502 714,501 714,499 713,498 713,497 712,496 712,494 711,493 711,492 710,491 710,489 709,488 709,487 708,486 708,484 707,483 707,481 706,480 706,479 705,478 705,476 704,475 704,473 703,472 703,471 702,470 702,468 701,467 701,466 700,465 700,463 699,462 699,460 698,459 698,458 697,457 697,455 696,454 696,453 695,452 695,450 694,449 694,447 693,446 693,445 692,444 692,442 691,441 691,440 690,439 690,437 689,436 689,434 688,433 688,432 687,431 687,429 686,428 686,426 685,425 685,424 684,423 684,421 683,420 683,419 682,418 682,416 681,415 681,414 680,413 680,411 679,410 679,408 678,407 678,406 677,405 677,403 676,402 676,400 675,399 675,398 674,397 674,395 673,394 673,392 672,391 672,390 671,389 671,387 670,386 670,384 669,383 669,382 668,381 668,379 667,378 667,377 666,376 666,374 665,373 665,371 664,370 664,369 663,368 663,366 662,365 662,363 661,362 661,361 660,360 660,358 659,357 659,356 658,355 658,353 657,352 657,350 656,349 656,348 655,347 655,345 654,344 654,343 653,342 653,340 652,339 652,337 651,336 651,335 650,334 650,332 649,331 649,329 648,328 648,327 647,326 647,324 646,323 646,322 645,321 645,319 644,318 644,316 643,315 643,314 642,313 642,311 641,310 641,309 640,308 640,306 639,305 639,303 638,302 638,301 637,300 637,298 636,297 636,295 635,294 635,293 634,292 634,290 633,289 633,288 632,287 632,285 631,284 631,283 630,282 630,280 629,279 629,278 628,277 628,275 627,274 627,272 626,271 626,270 625,269 625,267 624,266 624,265 623,264 623,262 622,261 622,260 621,259 621,257 620,256 620,255 619,254 619,252 618,251 618,249 617,248 617,247 616,246 616,244 615,243 615,242 614,241 614,239 613,238 613,237 612,236 612,234 611,233 611,231 610,230 610,229 609,228 609,226 608,225 608,224 607,223 607,221 606,220 606,219 605,218 605,216 604,215 604,214 603,213 603,211 602,210 602,208 601,207 601,206 600,205 600,203 599,202 599,201 598,200 598,198 597,197 597,196 596,195 596,193 595,192 595,191 594,190 594,188 593,187 593,186 592,185 592,183 591,182 591,181 590,180 590,179 589,178 589,177 587,175 587,174 584,171 584,170 579,165 578,165 575,162 574,162 572,160 571,160 570,159 569,159 568,158 567,158 566,157 564,157 563,156 562,156 561,155 558,155 557,154 553,154 552,153 544,153 543,152 Z M 508,323 509,322 517,322 518,323 519,323 520,324 521,324 526,329 526,330 528,332 528,333 529,334 529,336 530,337 530,338 531,339 531,341 532,342 532,344 533,345 533,346 534,347 534,349 535,350 535,351 536,352 536,354 537,355 537,357 538,358 538,359 539,360 539,362 540,363 540,365 541,366 541,367 542,368 542,370 543,371 543,373 544,374 544,375 545,376 545,378 546,379 546,380 547,381 547,383 548,384 548,386 549,387 549,388 550,389 550,391 551,392 551,394 552,395 552,396 553,397 553,399 554,400 554,402 555,403 555,404 556,405 556,407 557,408 557,410 558,411 558,412 559,413 559,415 560,416 560,417 561,418 561,420 562,421 562,423 563,424 563,425 564,426 564,428 565,429 565,431 566,432 566,433 567,434 567,436 568,437 568,438 569,439 569,441 570,442 570,444 571,445 571,447 572,448 572,449 573,450 573,452 574,453 574,454 575,455 575,457 576,458 576,460 577,461 577,463 578,464 578,465 579,466 579,468 580,469 580,470 581,471 581,473 582,474 582,476 583,477 583,479 584,480 584,481 585,482 585,483 586,484 586,486 587,487 587,489 588,490 588,492 589,493 589,500 588,501 588,503 587,504 587,505 582,510 581,510 580,511 579,511 578,512 576,512 575,513 448,513 447,512 445,512 444,511 443,511 442,510 441,510 437,506 437,505 436,504 436,503 435,502 435,493 436,492 436,490 437,489 437,487 438,486 438,485 439,484 439,482 440,481 440,480 441,479 441,478 442,477 442,475 443,474 443,472 444,471 444,470 445,469 445,467 446,466 446,465 447,464 447,462 448,461 448,460 449,459 449,457 450,456 450,455 451,454 451,452 452,451 452,449 453,448 453,447 454,446 454,444 455,443 455,442 456,441 456,439 457,438 457,436 458,435 458,434 459,433 459,431 460,430 460,429 461,428 461,426 462,425 462,423 463,422 463,421 464,420 464,418 465,417 465,416 466,415 466,413 467,412 467,410 468,409 468,408 469,407 469,405 470,404 470,403 471,402 471,400 472,399 472,397 473,396 473,395 474,394 474,392 475,391 475,390 476,389 476,387 477,386 477,384 478,383 478,382 479,381 479,379 480,378 480,377 481,376 481,374 482,373 482,372 483,371 483,369 484,368 484,366 485,365 485,364 486,363 486,361 487,360 487,358 488,357 488,356 489,355 489,353 490,352 490,350 491,349 491,348 492,347 492,345 493,344 493,342 494,341 494,340 495,339 495,337 496,336 496,335 497,334 497,332 499,330 499,329 504,324 505,324 506,323 Z" />
    </g>
    <g transform="translate(205, 205) scale(0.60, 0.60)">
        <path fill="#F9C847" fill-rule="evenodd" d="M 657,701 657,702 658,703 658,704 659,705 659,707 660,708 660,710 661,711 661,713 662,714 662,715 663,716 663,718 664,719 664,720 665,721 665,723 666,724 666,726 667,727 667,728 668,729 668,731 669,732 669,733 670,734 670,736 671,737 671,739 672,740 672,741 673,742 673,744 674,745 674,746 675,747 675,749 676,750 676,752 677,753 677,754 678,755 678,757 679,758 679,759 680,760 680,762 681,763 681,765 682,766 682,767 683,768 683,770 684,771 684,772 685,773 685,775 686,776 686,778 687,779 687,780 688,781 688,783 689,784 689,786 690,787 690,788 691,789 691,791 692,792 692,793 693,794 693,795 694,796 694,797 695,798 695,799 696,800 696,801 699,804 699,805 702,808 703,808 706,811 707,811 709,813 710,813 711,814 712,814 713,815 714,815 715,816 717,816 718,817 722,817 723,818 810,818 811,817 814,817 815,816 817,816 818,815 819,815 822,812 823,812 823,811 825,809 825,808 826,807 826,805 827,804 827,796 826,795 826,792 825,791 825,790 824,789 824,787 823,786 823,784 822,783 822,782 821,781 821,779 820,778 820,776 819,775 819,774 818,773 818,771 817,770 817,768 816,767 816,766 815,765 815,763 814,762 814,761 813,760 813,758 812,757 812,756 811,755 811,753 810,752 810,751 809,750 809,748 808,747 808,745 807,744 807,743 806,742 806,740 805,739 805,738 804,737 804,735 803,734 803,732 802,731 802,730 801,729 801,727 800,726 800,724 799,723 799,722 798,721 798,719 797,718 797,716 796,715 796,714 795,713 795,711 794,710 794,709 678,709 677,708 673,708 672,707 670,707 669,706 667,706 666,705 664,705 663,704 662,704 661,703 660,703 658,701 Z" />
        <path fill="#FFFFFF" fill-rule="evenodd" d="M 482,152 481,153 473,153 472,154 469,154 468,155 465,155 464,156 462,156 461,157 460,157 459,158 458,158 457,159 456,159 455,160 454,160 452,162 451,162 449,164 448,164 441,171 441,172 438,175 438,176 437,177 437,178 436,179 436,180 435,181 435,182 434,183 434,185 433,186 433,187 432,188 432,190 431,191 431,192 430,193 430,195 429,196 429,197 428,198 428,200 427,201 427,202 426,203 426,205 425,206 425,208 424,209 424,210 423,211 423,213 422,214 422,215 421,216 421,218 420,219 420,220 419,221 419,223 418,224 418,225 417,226 417,228 416,229 416,231 415,232 415,233 414,234 414,236 413,237 413,238 412,239 412,241 411,242 411,243 410,244 410,246 409,247 409,249 408,250 408,251 407,252 407,254 406,255 406,256 405,257 405,259 404,260 404,261 403,262 403,264 402,265 402,266 401,267 401,269 400,270 400,271 399,272 399,274 398,275 398,276 397,277 397,279 396,280 396,282 395,283 395,284 394,285 394,287 393,288 393,289 392,290 392,292 391,293 391,295 390,296 390,297 389,298 389,300 388,301 388,302 387,303 387,305 386,306 386,307 385,308 385,310 384,311 384,312 383,313 383,315 382,316 382,317 381,318 381,320 380,321 380,323 379,324 379,325 378,326 378,328 377,329 377,330 376,331 376,333 375,334 375,335 374,336 374,338 373,339 373,341 372,342 372,343 371,344 371,346 370,347 370,349 369,350 369,351 368,352 368,353 367,354 367,356 366,357 366,359 365,360 365,361 364,362 364,363 363,364 363,366 362,367 362,368 361,369 361,371 360,372 360,373 359,374 359,376 358,377 358,378 357,379 357,381 356,382 356,383 355,384 355,386 354,387 354,389 353,390 353,391 352,392 352,394 351,395 351,396 350,397 350,399 349,400 349,401 348,402 348,404 347,405 347,406 346,407 346,409 345,410 345,412 344,413 344,414 343,415 343,417 342,418 342,419 341,420 341,422 340,423 340,424 339,425 339,427 338,428 338,429 337,430 337,432 336,433 336,434 335,435 335,437 334,438 334,439 333,440 333,442 332,443 332,445 331,446 331,447 330,448 330,449 329,450 329,452 328,453 328,455 327,456 327,457 326,458 326,460 325,461 325,462 324,463 324,465 323,466 323,467 322,468 322,470 321,471 321,472 320,473 320,475 319,476 319,478 318,479 318,480 317,481 317,483 316,484 316,485 315,486 315,488 314,489 314,490 313,491 313,493 312,494 312,495 311,496 311,498 310,499 310,500 309,501 309,503 308,504 308,505 307,506 307,508 306,509 306,511 305,512 305,513 304,514 304,516 303,517 303,518 302,519 302,521 301,522 301,523 300,524 300,526 299,527 299,528 298,529 298,531 297,532 297,533 296,534 296,536 295,537 295,538 294,539 294,541 293,542 293,543 292,544 292,546 291,547 291,548 290,549 290,551 289,552 289,554 288,555 288,556 287,557 287,559 286,560 286,561 285,562 285,564 284,565 284,566 283,567 283,569 282,570 282,572 281,573 281,574 280,575 280,577 279,578 279,579 278,580 278,582 277,583 277,584 276,585 276,587 275,588 275,589 274,590 274,592 273,593 273,594 272,595 272,597 271,598 271,599 270,600 270,602 269,603 269,605 268,606 268,607 267,608 267,610 266,611 266,613 265,614 265,615 264,616 264,618 263,619 263,620 262,621 262,623 261,624 261,625 260,626 260,628 259,629 259,630 258,631 258,633 257,634 257,635 256,636 256,638 255,639 255,640 254,641 254,643 253,644 253,646 252,647 252,648 251,649 251,651 250,652 250,653 249,654 249,656 248,657 248,659 247,660 247,661 246,662 246,663 245,664 245,666 244,667 244,669 243,670 243,671 242,672 242,674 241,675 241,676 240,677 240,679 239,680 239,681 238,682 238,684 237,685 237,687 236,688 236,689 235,690 235,692 234,693 234,694 233,695 233,697 232,698 232,699 231,700 231,702 230,703 230,704 229,705 229,707 228,708 228,710 227,711 227,712 226,713 226,715 225,716 225,717 224,718 224,720 223,721 223,722 222,723 222,725 221,726 221,727 220,728 220,730 219,731 219,732 218,733 218,735 217,736 217,738 216,739 216,740 215,741 215,743 214,744 214,745 213,746 213,748 212,749 212,750 211,751 211,753 210,754 210,756 209,757 209,758 208,759 208,761 207,762 207,763 206,764 206,766 205,767 205,768 204,769 204,771 203,772 203,774 202,775 202,776 201,777 201,779 200,780 200,781 199,782 199,784 198,785 198,786 197,787 197,789 196,790 196,792 195,793 195,794 194,795 194,798 193,799 193,804 194,805 194,807 195,808 195,809 196,810 196,811 199,814 200,814 202,816 204,816 205,817 207,817 208,818 295,818 296,817 300,817 301,816 303,816 304,815 305,815 306,814 307,814 308,813 309,813 312,810 313,810 318,805 318,804 320,802 320,801 322,799 322,798 323,797 323,795 324,794 324,793 325,792 325,790 326,789 326,788 327,787 327,785 328,784 328,783 329,782 329,780 330,779 330,777 331,776 331,775 332,774 332,772 333,771 333,770 334,769 334,767 335,766 335,764 336,763 336,762 337,761 337,759 338,758 338,757 339,756 339,754 340,753 340,751 341,750 341,749 342,748 342,746 343,745 343,744 344,743 344,741 345,740 345,738 346,737 346,736 347,735 347,733 348,732 348,730 349,729 349,728 350,727 350,725 351,724 351,723 352,722 352,720 353,719 353,718 354,717 354,715 355,714 355,712 356,711 356,710 357,709 357,707 358,706 358,705 359,704 359,702 360,701 360,699 361,698 361,697 362,696 362,694 363,693 363,692 364,691 364,689 365,688 365,686 366,685 366,684 367,683 367,681 368,680 368,679 369,678 369,676 370,675 370,673 371,672 371,671 372,670 372,668 373,667 373,666 374,665 374,663 375,662 375,660 376,659 376,658 377,657 377,655 378,654 378,653 379,652 379,650 380,649 380,648 381,647 381,645 382,644 382,642 383,641 383,640 384,639 384,638 385,637 385,636 387,634 387,633 394,626 395,626 397,624 398,624 399,623 400,623 401,622 403,622 404,621 407,621 408,620 457,620 458,619 461,619 462,618 463,618 464,617 465,617 466,616 467,616 470,613 471,613 471,612 474,609 474,608 475,607 475,606 476,605 476,604 477,603 477,602 478,601 478,599 479,598 479,597 480,596 480,594 481,593 481,592 482,591 482,589 483,588 483,587 484,586 484,584 485,583 485,582 486,581 486,580 487,579 487,578 489,576 489,575 492,572 493,572 495,570 496,570 497,569 499,569 500,568 508,568 509,569 511,569 512,570 513,570 514,571 515,571 521,577 521,578 523,580 523,582 524,583 524,584 525,585 525,587 526,588 526,589 527,590 527,592 528,593 528,595 529,596 529,597 530,598 530,600 531,601 531,603 532,604 532,605 533,606 533,608 534,609 534,610 535,611 535,613 536,614 536,615 537,616 537,618 538,619 538,621 539,622 539,623 540,624 540,626 541,627 541,628 542,629 542,631 543,632 543,634 544,635 544,636 545,637 545,639 546,640 546,641 547,642 547,644 548,645 548,647 549,648 549,650 550,651 550,652 551,653 551,655 552,656 552,657 553,658 553,660 554,661 554,662 555,663 555,665 556,666 556,668 557,669 557,670 558,671 558,673 559,674 559,675 560,676 560,678 561,679 561,681 562,682 562,683 563,684 563,686 564,687 564,688 565,689 565,691 566,692 566,693 567,694 567,696 568,697 568,699 569,700 569,701 570,702 570,704 571,705 571,706 572,707 572,708 573,709 573,711 574,712 574,714 575,715 575,716 576,717 576,718 581,723 582,723 583,724 591,724 592,723 593,723 594,722 595,722 597,720 597,719 599,717 599,715 600,714 600,713 601,712 601,711 602,710 602,709 603,708 603,706 604,705 604,704 605,703 605,702 606,701 606,699 607,698 607,697 608,696 608,695 609,694 609,692 610,691 610,690 611,689 611,688 612,687 612,685 613,684 613,683 614,682 614,681 615,680 615,679 616,678 616,676 617,675 617,674 618,673 618,672 619,671 619,669 620,668 620,667 621,666 621,665 622,664 622,663 623,662 623,660 624,659 624,658 625,657 625,656 626,655 626,653 627,652 627,651 628,650 628,649 629,648 629,647 631,645 631,644 636,639 637,639 639,637 641,637 642,636 652,636 653,637 654,637 655,638 656,638 662,644 662,645 664,647 664,648 665,649 665,650 666,651 666,653 667,654 667,655 668,656 668,657 669,658 669,660 670,661 670,662 671,663 671,665 672,666 672,667 673,668 673,669 674,670 674,671 676,673 676,674 677,675 678,675 680,677 681,677 682,678 685,678 686,679 782,679 782,677 781,676 781,675 780,674 780,672 779,671 779,669 778,668 778,667 777,666 777,664 776,663 776,661 775,660 775,658 774,657 774,656 773,655 773,653 772,652 772,651 771,650 771,648 770,647 770,645 769,644 769,643 768,642 768,640 767,639 767,637 766,636 766,635 765,634 765,632 764,631 764,630 763,629 763,627 762,626 762,625 761,624 761,622 760,621 760,619 759,618 759,617 758,616 758,614 757,613 757,612 756,611 756,609 755,608 755,606 754,605 754,604 753,603 753,601 752,600 752,599 751,598 751,596 750,595 750,593 749,592 749,591 748,590 748,588 747,587 747,586 746,585 746,583 745,582 745,580 744,579 744,578 743,577 743,575 742,574 742,573 741,572 741,570 740,569 740,567 739,566 739,565 738,564 738,562 737,561 737,560 736,559 736,557 735,556 735,555 734,554 734,552 733,551 733,549 732,548 732,547 731,546 731,544 730,543 730,541 729,540 729,539 728,538 728,536 727,535 727,534 726,533 726,531 725,530 725,528 724,527 724,526 723,525 723,523 722,522 722,520 721,519 721,518 720,517 720,515 719,514 719,513 718,512 718,510 717,509 717,507 716,506 716,505 715,504 715,502 714,501 714,499 713,498 713,497 712,496 712,494 711,493 711,492 710,491 710,489 709,488 709,487 708,486 708,484 707,483 707,481 706,480 706,479 705,478 705,476 704,475 704,473 703,472 703,471 702,470 702,468 701,467 701,466 700,465 700,463 699,462 699,460 698,459 698,458 697,457 697,455 696,454 696,453 695,452 695,450 694,449 694,447 693,446 693,445 692,444 692,442 691,441 691,440 690,439 690,437 689,436 689,434 688,433 688,432 687,431 687,429 686,428 686,426 685,425 685,424 684,423 684,421 683,420 683,419 682,418 682,416 681,415 681,414 680,413 680,411 679,410 679,408 678,407 678,406 677,405 677,403 676,402 676,400 675,399 675,398 674,397 674,395 673,394 673,392 672,391 672,390 671,389 671,387 670,386 670,384 669,383 669,382 668,381 668,379 667,378 667,377 666,376 666,374 665,373 665,371 664,370 664,369 663,368 663,366 662,365 662,363 661,362 661,361 660,360 660,358 659,357 659,356 658,355 658,353 657,352 657,350 656,349 656,348 655,347 655,345 654,344 654,343 653,342 653,340 652,339 652,337 651,336 651,335 650,334 650,332 649,331 649,329 648,328 648,327 647,326 647,324 646,323 646,322 645,321 645,319 644,318 644,316 643,315 643,314 642,313 642,311 641,310 641,309 640,308 640,306 639,305 639,303 638,302 638,301 637,300 637,298 636,297 636,295 635,294 635,293 634,292 634,290 633,289 633,288 632,287 632,285 631,284 631,283 630,282 630,280 629,279 629,278 628,277 628,275 627,274 627,272 626,271 626,270 625,269 625,267 624,266 624,265 623,264 623,262 622,261 622,260 621,259 621,257 620,256 620,255 619,254 619,252 618,251 618,249 617,248 617,247 616,246 616,244 615,243 615,242 614,241 614,239 613,238 613,237 612,236 612,234 611,233 611,231 610,230 610,229 609,228 609,226 608,225 608,224 607,223 607,221 606,220 606,219 605,218 605,216 604,215 604,214 603,213 603,211 602,210 602,208 601,207 601,206 600,205 600,203 599,202 599,201 598,200 598,198 597,197 597,196 596,195 596,193 595,192 595,191 594,190 594,188 593,187 593,186 592,185 592,183 591,182 591,181 590,180 590,179 589,178 589,177 587,175 587,174 584,171 584,170 579,165 578,165 575,162 574,162 572,160 571,160 570,159 569,159 568,158 567,158 566,157 564,157 563,156 562,156 561,155 558,155 557,154 553,154 552,153 544,153 543,152 Z M 508,323 509,322 517,322 518,323 519,323 520,324 521,324 526,329 526,330 528,332 528,333 529,334 529,336 530,337 530,338 531,339 531,341 532,342 532,344 533,345 533,346 534,347 534,349 535,350 535,351 536,352 536,354 537,355 537,357 538,358 538,359 539,360 539,362 540,363 540,365 541,366 541,367 542,368 542,370 543,371 543,373 544,374 544,375 545,376 545,378 546,379 546,380 547,381 547,383 548,384 548,386 549,387 549,388 550,389 550,391 551,392 551,394 552,395 552,396 553,397 553,399 554,400 554,402 555,403 555,404 556,405 556,407 557,408 557,410 558,411 558,412 559,413 559,415 560,416 560,417 561,418 561,420 562,421 562,423 563,424 563,425 564,426 564,428 565,429 565,431 566,432 566,433 567,434 567,436 568,437 568,438 569,439 569,441 570,442 570,444 571,445 571,447 572,448 572,449 573,450 573,452 574,453 574,454 575,455 575,457 576,458 576,460 577,461 577,463 578,464 578,465 579,466 579,468 580,469 580,470 581,471 581,473 582,474 582,476 583,477 583,479 584,480 584,481 585,482 585,483 586,484 586,486 587,487 587,489 588,490 588,492 589,493 589,500 588,501 588,503 587,504 587,505 582,510 581,510 580,511 579,511 578,512 576,512 575,513 448,513 447,512 445,512 444,511 443,511 442,510 441,510 437,506 437,505 436,504 436,503 435,502 435,493 436,492 436,490 437,489 437,487 438,486 438,485 439,484 439,482 440,481 440,480 441,479 441,478 442,477 442,475 443,474 443,472 444,471 444,470 445,469 445,467 446,466 446,465 447,464 447,462 448,461 448,460 449,459 449,457 450,456 450,455 451,454 451,452 452,451 452,449 453,448 453,447 454,446 454,444 455,443 455,442 456,441 456,439 457,438 457,436 458,435 458,434 459,433 459,431 460,430 460,429 461,428 461,426 462,425 462,423 463,422 463,421 464,420 464,418 465,417 465,416 466,415 466,413 467,412 467,410 468,409 468,408 469,407 469,405 470,404 470,403 471,402 471,400 472,399 472,397 473,396 473,395 474,394 474,392 475,391 475,390 476,389 476,387 477,386 477,384 478,383 478,382 479,381 479,379 480,378 480,377 481,376 481,374 482,373 482,372 483,371 483,369 484,368 484,366 485,365 485,364 486,363 486,361 487,360 487,358 488,357 488,356 489,355 489,353 490,352 490,350 491,349 491,348 492,347 492,345 493,344 493,342 494,341 494,340 495,339 495,337 496,336 496,335 497,334 497,332 499,330 499,329 504,324 505,324 506,323 Z" />
    </g>
</svg>